<svg width="12" height="14" viewBox="0 0 12 14" fill="none" xmlns="http://www.w3.org/2000/svg">
<path id="Subtract" fill-rule="evenodd" clip-rule="evenodd" d="M2.66527 3.66665V3.66668H1.46914C1.12302 3.66668 0.834471 3.93155 0.804912 4.27641L0.0620545 12.9431C0.0286922 13.3323 0.335632 13.6667 0.726285 13.6667H11.2738C11.6644 13.6667 11.9714 13.3323 11.938 12.9431L11.1952 4.27641C11.1656 3.93156 10.877 3.66668 10.5309 3.66668H9.33193V3.66665C9.33193 1.8257 7.83955 0.333313 5.9986 0.333313C4.15765 0.333313 2.66527 1.8257 2.66527 3.66665ZM5.99808 1.66671C4.89352 1.66671 3.9981 2.56212 3.99808 3.66668H7.99808C7.99806 2.56212 7.10264 1.66671 5.99808 1.66671ZM5.99687 8.99988C7.81927 8.99988 9.30009 7.53742 9.32975 5.72209C9.33126 5.70382 9.33203 5.68533 9.33203 5.66666C9.33203 5.29847 9.03355 5 8.66536 5C8.29717 5 7.9987 5.29846 7.99869 5.66665H7.99635C7.99634 6.7712 7.10091 7.66661 5.99635 7.66661C4.90982 7.66661 4.02565 6.80018 3.99707 5.72055C3.99849 5.70275 3.99922 5.68476 3.99922 5.6666C3.99922 5.29841 3.70074 4.99993 3.33255 4.99993C2.96436 4.99993 2.66588 5.29841 2.66588 5.6666V5.66665H2.66393V5.615C2.66367 5.63215 2.66354 5.64933 2.66354 5.66655C2.66354 7.5075 4.15592 8.99988 5.99687 8.99988Z" fill="white"/>
</svg>
